# xmcd
#
# Track frame offsets: 
#        182
#        14037
#        30550
#        52922
#        72385
#        84155
#        102015
#        111897
#        126472
#        141902
#        155405
#        172220
#
# Disc length: 2591 seconds
#
# Revision: 3
# Processed by: cddbd v1.5.2PL0 Copyright (c) Steve Scherf et al.
# Submitted via: ExactAudioCopy v0.95b4
#
DISCID=a30a1d0c
DTITLE=Various Artist - Ginder
DYEAR=1994
DGENRE=Rock
TTITLE0=Sonic Youth - Bull In The Heather
TTITLE1=Cell - Goodbye
TTITLE2=Beck - Corvette Bummer
TTITLE3=Sugartooth - Cracks In The Pavement
TTITLE4=Hole - Plump
TTITLE5=Weezer - In The Garage
TTITLE6=That Dog - Old Timer
TTITLE7=St. Johnny - Down The Drain
TTITLE8=Urge Overkill - Crackbabies (Live)
TTITLE9=The Raincoats - Fairytale In The Supermarket
TTITLE10=White Zombie - I Am Hell
TTITLE11=Pat Metheny - Part 1 (Edit)
EXTD=
EXTT0=
EXTT1=
EXTT2=
EXTT3=
EXTT4=
EXTT5=
EXTT6=
EXTT7=
EXTT8=
EXTT9=
EXTT10=
EXTT11=
PLAYORDER=
